TITLE ""
FILE "1Q_t_1768-1777.mp3" MP3
  TRACK 01 AUDIO
    TITLE "1Q_t_1768-1777_01"
    INDEX 01 00:00:00
  TRACK 02 AUDIO
    TITLE "1Q_t_1768-1777_02"
    INDEX 01 00:01:27
  TRACK 03 AUDIO
    TITLE "1Q_t_1768-1777_03"
    INDEX 01 00:01:72
  TRACK 04 AUDIO
    TITLE "1Q_t_1768-1777_04"
    INDEX 01 00:03:09
  TRACK 05 AUDIO
    TITLE "1Q_t_1768-1777_05"
    INDEX 01 00:03:18
  TRACK 06 AUDIO
    TITLE "1Q_t_1768-1777_06"
    INDEX 01 00:05:45
  TRACK 07 AUDIO
    TITLE "1Q_t_1768-1777_07"
    INDEX 01 00:05:55
  TRACK 08 AUDIO
    TITLE "1Q_t_1768-1777_08"
    INDEX 01 00:09:52
  TRACK 09 AUDIO
    TITLE "1Q_t_1768-1777_09"
    INDEX 01 00:10:26
  TRACK 10 AUDIO
    TITLE "1Q_t_1768-1777_10"
    INDEX 01 00:11:24
  TRACK 11 AUDIO
    TITLE "1Q_t_1768-1777_11"
    INDEX 01 00:11:34
  TRACK 12 AUDIO
    TITLE "1Q_t_1768-1777_12"
    INDEX 01 00:15:47
  TRACK 13 AUDIO
    TITLE "1Q_t_1768-1777_13"
    INDEX 01 00:15:57
  TRACK 14 AUDIO
    TITLE "1Q_t_1768-1777_14"
    INDEX 01 00:20:37
  TRACK 15 AUDIO
    TITLE "1Q_t_1768-1777_15"
    INDEX 01 00:21:10
  TRACK 16 AUDIO
    TITLE "1Q_t_1768-1777_16"
    INDEX 01 00:22:26
  TRACK 17 AUDIO
    TITLE "1Q_t_1768-1777_17"
    INDEX 01 00:22:33
  TRACK 18 AUDIO
    TITLE "1Q_t_1768-1777_18"
    INDEX 01 00:23:45
  TRACK 19 AUDIO
    TITLE "1Q_t_1768-1777_19"
    INDEX 01 00:23:54
  TRACK 20 AUDIO
    TITLE "1Q_t_1768-1777_20"
    INDEX 01 00:28:54
  TRACK 21 AUDIO
    TITLE "1Q_t_1768-1777_21"
    INDEX 01 00:29:26
  TRACK 22 AUDIO
    TITLE "1Q_t_1768-1777_22"
    INDEX 01 00:30:35
  TRACK 23 AUDIO
    TITLE "1Q_t_1768-1777_23"
    INDEX 01 00:30:47
  TRACK 24 AUDIO
    TITLE "1Q_t_1768-1777_24"
    INDEX 01 00:33:06
  TRACK 25 AUDIO
    TITLE "1Q_t_1768-1777_25"
    INDEX 01 00:33:16
  TRACK 26 AUDIO
    TITLE "1Q_t_1768-1777_26"
    INDEX 01 00:38:13
  TRACK 27 AUDIO
    TITLE "1Q_t_1768-1777_27"
    INDEX 01 00:38:66
  TRACK 28 AUDIO
    TITLE "1Q_t_1768-1777_28"
    INDEX 01 00:40:22
  TRACK 29 AUDIO
    TITLE "1Q_t_1768-1777_29"
    INDEX 01 00:40:33
  TRACK 30 AUDIO
    TITLE "1Q_t_1768-1777_30"
    INDEX 01 00:41:72
  TRACK 31 AUDIO
    TITLE "1Q_t_1768-1777_31"
    INDEX 01 00:42:05
  TRACK 32 AUDIO
    TITLE "1Q_t_1768-1777_32"
    INDEX 01 00:46:40
  TRACK 33 AUDIO
    TITLE "1Q_t_1768-1777_33"
    INDEX 01 00:47:12
  TRACK 34 AUDIO
    TITLE "1Q_t_1768-1777_34"
    INDEX 01 00:48:29
  TRACK 35 AUDIO
    TITLE "1Q_t_1768-1777_35"
    INDEX 01 00:48:41
  TRACK 36 AUDIO
    TITLE "1Q_t_1768-1777_36"
    INDEX 01 00:49:60
  TRACK 37 AUDIO
    TITLE "1Q_t_1768-1777_37"
    INDEX 01 00:49:70
  TRACK 38 AUDIO
    TITLE "1Q_t_1768-1777_38"
    INDEX 01 00:54:06
  TRACK 39 AUDIO
    TITLE "1Q_t_1768-1777_39"
    INDEX 01 00:54:53
  TRACK 40 AUDIO
    TITLE "1Q_t_1768-1777_40"
    INDEX 01 00:55:72
  TRACK 41 AUDIO
    TITLE "1Q_t_1768-1777_41"
    INDEX 01 00:56:05
  TRACK 42 AUDIO
    TITLE "1Q_t_1768-1777_42"
    INDEX 01 00:58:27
  TRACK 43 AUDIO
    TITLE "1Q_t_1768-1777_43"
    INDEX 01 00:58:37
  TRACK 44 AUDIO
    TITLE "1Q_t_1768-1777_44"
    INDEX 01 01:03:19
  TRACK 45 AUDIO
    TITLE "1Q_t_1768-1777_45"
    INDEX 01 01:03:68
  TRACK 46 AUDIO
    TITLE "1Q_t_1768-1777_46"
    INDEX 01 01:05:10
  TRACK 47 AUDIO
    TITLE "1Q_t_1768-1777_47"
    INDEX 01 01:05:22
  TRACK 48 AUDIO
    TITLE "1Q_t_1768-1777_48"
    INDEX 01 01:07:13
  TRACK 49 AUDIO
    TITLE "1Q_t_1768-1777_49"
    INDEX 01 01:07:20
  TRACK 50 AUDIO
    TITLE "1Q_t_1768-1777_50"
    INDEX 01 01:11:22
  TRACK 51 AUDIO
    TITLE "1Q_t_1768-1777_51"
    INDEX 01 01:11:69
  TRACK 52 AUDIO
    TITLE "1Q_t_1768-1777_52"
    INDEX 01 01:13:07
  TRACK 53 AUDIO
    TITLE "1Q_t_1768-1777_53"
    INDEX 01 01:13:21
  TRACK 54 AUDIO
    TITLE "1Q_t_1768-1777_54"
    INDEX 01 01:16:27
  TRACK 55 AUDIO
    TITLE "1Q_t_1768-1777_55"
    INDEX 01 01:16:35
  TRACK 56 AUDIO
    TITLE "1Q_t_1768-1777_56"
    INDEX 01 01:21:05
  TRACK 57 AUDIO
    TITLE "1Q_t_1768-1777_57"
    INDEX 01 01:21:52
  TRACK 58 AUDIO
    TITLE "1Q_t_1768-1777_58"
    INDEX 01 01:23:06
  TRACK 59 AUDIO
    TITLE "1Q_t_1768-1777_59"
    INDEX 01 01:23:16
  TRACK 60 AUDIO
    TITLE "1Q_t_1768-1777_60"
    INDEX 01 01:24:40
  TRACK 61 AUDIO
    TITLE "1Q_t_1768-1777_61"
    INDEX 01 01:24:50
  TRACK 62 AUDIO
    TITLE "1Q_t_1768-1777_62"
    INDEX 01 01:28:73
